<svg xmlns="http://www.w3.org/2000/svg" width="161.59154937144808" height="31" style=""><rect id="backgroundrect" width="100%" height="100%" x="0" y="0" fill="none" stroke="none" class="selected" style=""/><defs><style>.a{fill:#fff;}.b{fill:#525c86;}.c{fill:#fdb940;}</style></defs><title>logo-eclipseche</title><g class="currentLayer" style=""><title>Layer 1</title><path class="a" d="M16.829999923706055,0.38365849879767233 v2 H2.309999923706073 v8.81 h13.59 v2 H2.309999923706073 v9.63 h14.69 v2 h-17 V0.38365849879767233 H16.829999923706055 z" id="svg_1"/><path class="a" d="M29.7799999237061,9.57365849879767 a4.69,4.69 0 0 0 -3.35,-1.13 a5.44,5.44 0 0 0 -2.7,0.6500000000000008 a5.92,5.92 0 0 0 -1.9300000000000002,1.71 a7.76,7.76 0 0 0 -1.1600000000000001,2.41 a9.83,9.83 0 0 0 0,5.5 a7.75,7.75 0 0 0 1.1600000000000001,2.41 a5.91,5.91 0 0 0 1.9300000000000002,1.71 a5.44,5.44 0 0 0 2.7,0.6500000000000008 a4.77,4.77 0 0 0 1.8800000000000003,-0.38000000000000034 a5.05,5.05 0 0 0 1.57,-1 a5.57,5.57 0 0 0 1.13,-1.59 a5.87,5.87 0 0 0 0.55,-2 h2.15 a8.13,8.13 0 0 1 -2.36,5 A6.9,6.9 0 0 1 26.429999923706077,25.263658498797668 a8.26,8.26 0 0 1 -3.5700000000000003,-0.7300000000000006 a7.57,7.57 0 0 1 -2.6100000000000003,-2 a8.72,8.72 0 0 1 -1.61,-3 a12.16,12.16 0 0 1 0,-7.21 a8.72,8.72 0 0 1 1.61,-3 a7.78,7.78 0 0 1 2.6100000000000003,-2 a8.1,8.1 0 0 1 3.5700000000000003,-0.7500000000000007 a7.66,7.66 0 0 1 4.8,1.5 a6.42,6.42 0 0 1 2.34,4.54 h-2.15 A5.92,5.92 0 0 0 29.7799999237061,9.57365849879767 z" id="svg_2"/><path class="a" d="M37.829999923706055,0.38365849879767233 v24.39 h-2.15 V0.38365849879767233 H37.829999923706055 z" id="svg_3"/><path class="a" d="M43.43999992370607,0.38365849879767233 v3.45 h-2.15 v-3.45 h2.15 zm0,6.76 v17.62 h-2.15 V7.143658498797663 h2.15 z" id="svg_4"/><path class="a" d="M48.829999923706055,7.143658498797663 v3.35 h0.07 a5.76,5.76 0 0 1 2.44,-2.85 a7.36,7.36 0 0 1 3.84,-1 a7.67,7.67 0 0 1 3.5,0.7500000000000007 a7.19,7.19 0 0 1 2.48,2 a8.66,8.66 0 0 1 1.47,3 a13.54,13.54 0 0 1 0,7.14 a8.66,8.66 0 0 1 -1.47,3 a7,7 0 0 1 -2.48,2 a8.35,8.35 0 0 1 -5.41,0.5 a6.74,6.74 0 0 1 -1.78,-0.7200000000000006 a5.84,5.84 0 0 1 -1.45,-1.2 a5.07,5.07 0 0 1 -1,-1.6700000000000008 h-0.07 V31.263658498797668 H46.829999923706055 V7.143658498797663 h2 zm11.8,6.1 a7.54,7.54 0 0 0 -1,-2.41 a5.6400000000000015,5.6400000000000015 0 0 0 -1.79,-1.7200000000000002 a5,5 0 0 0 -2.63,-0.6700000000000009 a6.44,6.44 0 0 0 -3,0.6100000000000007 a5.16,5.16 0 0 0 -1.9100000000000001,1.6400000000000001 a6.45,6.45 0 0 0 -1,2.39 a13.76,13.76 0 0 0 -0.2900000000000003,2.87 a11.51,11.51 0 0 0 0.3200000000000004,2.72 a7,7 0 0 0 1.06,2.41 a5.69,5.69 0 0 0 1.9100000000000001,1.7200000000000002 a5.78,5.78 0 0 0 2.89,0.6700000000000009 a5,5 0 0 0 2.63,-0.6700000000000009 a5.6400000000000015,5.6400000000000015 0 0 0 1.79,-1.7200000000000002 a7.53,7.53 0 0 0 1,-2.41 A11.55,11.55 0 0 0 60.639999923706,13.263658498797668 z" id="svg_5"/><path class="a" d="M75.43999992370607,10.58365849879766 a3.49,3.49 0 0 0 -1,-1.21 a4.21,4.21 0 0 0 -1.45,-0.7000000000000006 a6.6400000000000015,6.6400000000000015 0 0 0 -1.7400000000000002,-0.22000000000000017 a7.07,7.07 0 0 0 -1.45,0.15000000000000016 a4.46,4.46 0 0 0 -1.35,0.51 a2.9,2.9 0 0 0 -1,0.9400000000000006 a2.58,2.58 0 0 0 -0.38000000000000034,1.4300000000000002 a2,2 0 0 0 0.3600000000000003,1.21 a3.17,3.17 0 0 0 0.9,0.8400000000000006 a5.75,5.75 0 0 0 1.2,0.56 q0.6500000000000008,0.22000000000000017 1.19,0.3600000000000003 l2.87,0.6500000000000008 a8.2,8.2 0 0 1 1.83,0.5 a5.9,5.9 0 0 1 1.6,0.9400000000000006 a4.59,4.59 0 0 1 1.1400000000000001,1.4300000000000002 a4.32,4.32 0 0 1 0.44000000000000034,2 a4.42,4.42 0 0 1 -0.6500000000000008,2.44 a5.3,5.3 0 0 1 -1.6600000000000001,1.6400000000000001 a7,7 0 0 1 -2.27,0.91 a11.8,11.8 0 0 1 -2.49,0.27 a8.09,8.09 0 0 1 -5,-1.47 a6.25,6.25 0 0 1 -2.2,-4.71 h2.15 a4.24,4.24 0 0 0 1.59,3.3 a5.75,5.75 0 0 0 3.6,1.11 a8.08,8.08 0 0 0 1.62,-0.17 a5.19,5.19 0 0 0 1.55,-0.5800000000000006 a3.7,3.7 0 0 0 1.18,-1 a2.56,2.56 0 0 0 0.46,-1.55 a2.47,2.47 0 0 0 -0.3200000000000004,-1.31 a2.8200000000000003,2.8200000000000003 0 0 0 -0.8700000000000007,-0.8900000000000008 a5.49,5.49 0 0 0 -1.25,-0.6000000000000006 q-0.7000000000000006,-0.24000000000000016 -1.42,-0.4100000000000003 L69.82999992370605,16.263658498797668 a15.58,15.58 0 0 1 -1.9500000000000002,-0.6300000000000007 a6.2,6.2 0 0 1 -1.55,-0.8900000000000008 a3.73,3.73 0 0 1 -1,-1.3 a4.3,4.3 0 0 1 -0.38000000000000034,-1.9 a4.23,4.23 0 0 1 0.6000000000000006,-2.29 a4.67,4.67 0 0 1 1.55,-1.54 a7.22,7.22 0 0 1 2.13,-0.8500000000000006 a10.32,10.32 0 0 1 2.34,-0.27 a8.63,8.63 0 0 1 2.48,0.34000000000000047 a5.7,5.7 0 0 1 2,1.06 a5.2,5.2 0 0 1 1.3800000000000001,1.78 a6.38,6.38 0 0 1 0.5800000000000006,2.49 H75.82999992370605 A4.06,4.06 0 0 0 75.43999992370607,10.58365849879766 z" id="svg_6"/><path class="a" d="M82.29999992370608,18.943658498797674 a6.62,6.62 0 0 0 1,2.24 a6,6 0 0 0 1.81,1.6400000000000001 a5.06,5.06 0 0 0 2.63,0.6500000000000008 a5.23,5.23 0 0 0 3.6900000000000004,-1.23 a6.47,6.47 0 0 0 1.84,-3.2800000000000002 h2.15 a8.6,8.6 0 0 1 -2.51,4.6400000000000015 a7.49,7.49 0 0 1 -5.17,1.6400000000000001 a8.2,8.2 0 0 1 -3.6,-0.7300000000000006 a6.62,6.62 0 0 1 -2.48,-2 a8.75,8.75 0 0 1 -1.42,-3 a13.48,13.48 0 0 1 -0.46,-3.5700000000000003 a12.78,12.78 0 0 1 0.46,-3.42 a9.17,9.17 0 0 1 1.42,-3 a7.11,7.11 0 0 1 2.48,-2.12 a7.62,7.62 0 0 1 3.6,-0.8 a7,7 0 0 1 6.06,3.09 a9.3,9.3 0 0 1 1.35,3.18 a13.94,13.94 0 0 1 0.34000000000000047,3.64 H81.96999992370604 A9.53,9.53 0 0 0 82.29999992370608,18.943658498797674 zm10.66,-6.57 a6.45,6.45 0 0 0 -1.11,-2 a5.49,5.49 0 0 0 -1.7400000000000002,-1.4 a5,5 0 0 0 -2.3200000000000003,-0.53 a5.06,5.06 0 0 0 -2.36,0.53 a5.5,5.5 0 0 0 -1.7400000000000002,1.4 a7,7 0 0 0 -1.1400000000000001,2 a9.82,9.82 0 0 0 -0.56,2.34 h11.41 A7.8,7.8 0 0 0 92.94999992370606,12.373658498797681 z" id="svg_7"/><path class="a" d="M124.06999992370606,5.263658498797668 a6.87,6.87 0 0 0 -1.71,-1.86 a7.62,7.62 0 0 0 -2.22,-1.1400000000000001 a8.22,8.22 0 0 0 -2.54,-0.3900000000000004 a8.79,8.79 0 0 0 -4.17,0.92 a8.25,8.25 0 0 0 -2.85,2.44 a10.54,10.54 0 0 0 -1.6400000000000001,3.43 a14.77,14.77 0 0 0 0,7.84 a10.51,10.51 0 0 0 1.6400000000000001,3.45 a8.25,8.25 0 0 0 2.85,2.44 a8.79,8.79 0 0 0 4.17,0.92 a7.41,7.41 0 0 0 3.07,-0.6100000000000007 a7.28,7.28 0 0 0 2.36,-1.6700000000000008 a8.56,8.56 0 0 0 1.6,-2.48 a10.32,10.32 0 0 0 0.79,-3.06 h2.3200000000000003 a13.18,13.18 0 0 1 -1.06,4.06 a10,10 0 0 1 -2.12,3.07 a9,9 0 0 1 -3.06,1.9500000000000002 a10.73,10.73 0 0 1 -3.91,0.6800000000000009 a11.51,11.51 0 0 1 -5,-1 a10.44,10.44 0 0 1 -3.6,-2.7800000000000002 a11.83,11.83 0 0 1 -2.15,-4 a16.53,16.53 0 0 1 0,-9.63 a12,12 0 0 1 2.15,-4 a10.35,10.35 0 0 1 3.6,-2.8 a12.2,12.2 0 0 1 8.44,-0.53 a9.85,9.85 0 0 1 3,1.52 a8.870000000000001,8.870000000000001 0 0 1 2.25,2.48 a8.35,8.35 0 0 1 1.1400000000000001,3.38 h-2.3200000000000003 A7.78,7.78 0 0 0 124.06999992370606,5.263658498797668 z" id="svg_8"/><path class="a" d="M132.249999923706,0.38365849879767233 v9.8 h0.07 a5.16,5.16 0 0 1 2.19,-2.58 a6.42,6.42 0 0 1 3.45,-1 a8.7,8.7 0 0 1 3.09,0.4800000000000003 a4.91,4.91 0 0 1 2,1.35 a5,5 0 0 1 1.06,2.13 a12,12 0 0 1 0.31000000000000033,2.83 v11.34 h-2.15 v-11 a10.16,10.16 0 0 0 -0.21000000000000016,-2.1 a4.43,4.43 0 0 0 -0.7200000000000006,-1.6900000000000008 a3.48,3.48 0 0 0 -1.3800000000000001,-1.13 a5.08,5.08 0 0 0 -2.17,-0.4100000000000003 a5.48,5.48 0 0 0 -2.31,0.46 a5,5 0 0 0 -1.71,1.26 a5.85,5.85 0 0 0 -1.09,1.9100000000000001 a7.78,7.78 0 0 0 -0.4300000000000003,2.41 v10.28 h-2.15 V0.38365849879767233 h2.15 z" id="svg_9"/><path class="a" d="M149.30999992370607,18.943658498797674 a6.62,6.62 0 0 0 1,2.24 a6,6 0 0 0 1.81,1.6400000000000001 a5.06,5.06 0 0 0 2.63,0.6500000000000008 a5.23,5.23 0 0 0 3.6900000000000004,-1.23 a6.47,6.47 0 0 0 1.84,-3.2800000000000002 h2.15 a8.6,8.6 0 0 1 -2.51,4.6400000000000015 A7.49,7.49 0 0 1 154.82999992370605,25.263658498797668 a8.2,8.2 0 0 1 -3.6,-0.7300000000000006 a6.62,6.62 0 0 1 -2.48,-2 a8.75,8.75 0 0 1 -1.42,-3 a13.48,13.48 0 0 1 -0.46,-3.5700000000000003 a12.78,12.78 0 0 1 0.46,-3.42 a9.17,9.17 0 0 1 1.42,-3 a7.11,7.11 0 0 1 2.48,-2.12 a7.62,7.62 0 0 1 3.6,-0.8 a7,7 0 0 1 6.06,3.09 a9.3,9.3 0 0 1 1.35,3.18 a13.94,13.94 0 0 1 0.34000000000000047,3.64 H148.97999992370603 A9.53,9.53 0 0 0 149.30999992370607,18.943658498797674 zm10.66,-6.57 a6.45,6.45 0 0 0 -1.11,-2 a5.49,5.49 0 0 0 -1.7400000000000002,-1.4 a5,5 0 0 0 -2.3200000000000003,-0.53 a5.06,5.06 0 0 0 -2.36,0.53 a5.5,5.5 0 0 0 -1.7400000000000002,1.4 a7,7 0 0 0 -1.1400000000000001,2 a9.82,9.82 0 0 0 -0.56,2.34 h11.41 A7.8,7.8 0 0 0 159.95999992370605,12.373658498797681 z" id="svg_10"/></g></svg>